<svg xmlns="http://www.w3.org/2000/svg" viewBox="0 0 920 520" fill="none">
  
  <rect width="920" height="520" rx="12" fill="#f5f5f7"></rect>
  <rect width="920" height="40" rx="12" fill="#e8e8ed"></rect>
  <rect y="28" width="920" height="12" fill="#e8e8ed"></rect>
  <circle cx="24" cy="20" r="6" fill="#ff5f57"></circle>
  <circle cx="44" cy="20" r="6" fill="#febc2e"></circle>
  <circle cx="64" cy="20" r="6" fill="#28c840"></circle>

  
  <rect x="0" y="40" width="200" height="480" fill="#fafafa"></rect>
  <line x1="200" y1="40" x2="200" y2="520" stroke="#e8e8ed" stroke-width="1"></line>

  
  <rect x="16" y="60" width="168" height="28" rx="6" fill="#0071e3" opacity="0.1"></rect>
  <rect x="32" y="70" width="80" height="8" rx="4" fill="#0071e3" opacity="0.6"></rect>
  <rect x="32" y="104" width="72" height="7" rx="3.5" fill="#86868b" opacity="0.5"></rect>
  <rect x="32" y="124" width="64" height="7" rx="3.5" fill="#86868b" opacity="0.4"></rect>
  <rect x="32" y="144" width="88" height="7" rx="3.5" fill="#86868b" opacity="0.4"></rect>
  <rect x="32" y="164" width="56" height="7" rx="3.5" fill="#86868b" opacity="0.4"></rect>
  <rect x="16" y="192" width="168" height="1" fill="#e8e8ed"></rect>
  <rect x="20" y="206" width="50" height="6" rx="3" fill="#86868b" opacity="0.3"></rect>
  <rect x="32" y="224" width="96" height="7" rx="3.5" fill="#86868b" opacity="0.4"></rect>
  <rect x="32" y="244" width="80" height="7" rx="3.5" fill="#86868b" opacity="0.4"></rect>
  <rect x="32" y="264" width="72" height="7" rx="3.5" fill="#86868b" opacity="0.4"></rect>

  
  <g transform="translate(210, 40)">
    <rect width="710" height="480" fill="#ffffff"></rect>

    
    <line x1="355" y1="160" x2="200" y2="100" stroke="#c8922a" stroke-width="2" opacity="0.35"></line>
    <line x1="355" y1="160" x2="510" y2="90" stroke="#c8922a" stroke-width="2" opacity="0.35"></line>
    <line x1="355" y1="160" x2="160" y2="280" stroke="#0071e3" stroke-width="1.5" opacity="0.25"></line>
    <line x1="355" y1="160" x2="520" y2="260" stroke="#0071e3" stroke-width="1.5" opacity="0.25"></line>
    <line x1="355" y1="160" x2="355" y2="340" stroke="#c8922a" stroke-width="2" opacity="0.3"></line>
    <line x1="200" y1="100" x2="100" y2="200" stroke="#86868b" stroke-width="1" opacity="0.2"></line>
    <line x1="510" y1="90" x2="600" y2="190" stroke="#86868b" stroke-width="1" opacity="0.2"></line>
    <line x1="160" y1="280" x2="100" y2="380" stroke="#86868b" stroke-width="1" opacity="0.15"></line>
    <line x1="520" y1="260" x2="600" y2="360" stroke="#86868b" stroke-width="1" opacity="0.15"></line>
    <line x1="355" y1="340" x2="240" y2="400" stroke="#86868b" stroke-width="1" opacity="0.15"></line>
    <line x1="355" y1="340" x2="470" y2="400" stroke="#86868b" stroke-width="1" opacity="0.15"></line>

    
    <circle cx="355" cy="160" r="28" fill="#c8922a" opacity="0.12"></circle>
    <circle cx="355" cy="160" r="18" fill="#c8922a" opacity="0.9"></circle>
    <text x="355" y="164" text-anchor="middle" font-family="-apple-system, sans-serif" font-size="10" fill="#fff" font-weight="600">P</text>

    
    <circle cx="200" cy="100" r="14" fill="#0071e3" opacity="0.8"></circle>
    <circle cx="510" cy="90" r="14" fill="#0071e3" opacity="0.8"></circle>
    <circle cx="160" cy="280" r="12" fill="#0071e3" opacity="0.6"></circle>
    <circle cx="520" cy="260" r="12" fill="#0071e3" opacity="0.6"></circle>
    <circle cx="355" cy="340" r="14" fill="#c8922a" opacity="0.7"></circle>

    
    <circle cx="100" cy="200" r="8" fill="#86868b" opacity="0.4"></circle>
    <circle cx="600" cy="190" r="8" fill="#86868b" opacity="0.4"></circle>
    <circle cx="100" cy="380" r="7" fill="#86868b" opacity="0.3"></circle>
    <circle cx="600" cy="360" r="7" fill="#86868b" opacity="0.3"></circle>
    <circle cx="240" cy="400" r="7" fill="#86868b" opacity="0.3"></circle>
    <circle cx="470" cy="400" r="7" fill="#86868b" opacity="0.3"></circle>

    
    <rect x="170" y="54" width="60" height="20" rx="4" fill="#f5f5f7"></rect>
    <rect x="180" y="61" width="40" height="5" rx="2.5" fill="#86868b" opacity="0.5"></rect>
    <rect x="480" y="44" width="60" height="20" rx="4" fill="#f5f5f7"></rect>
    <rect x="490" y="51" width="40" height="5" rx="2.5" fill="#86868b" opacity="0.5"></rect>

    
    <g transform="translate(540, 420)">
      <circle cx="8" cy="8" r="5" fill="#c8922a" opacity="0.8"></circle>
      <rect x="20" y="5" width="40" height="5" rx="2.5" fill="#86868b" opacity="0.4"></rect>
      <circle cx="8" cy="26" r="5" fill="#0071e3" opacity="0.7"></circle>
      <rect x="20" y="23" width="48" height="5" rx="2.5" fill="#86868b" opacity="0.4"></rect>
      <circle cx="8" cy="44" r="4" fill="#86868b" opacity="0.4"></circle>
      <rect x="20" y="41" width="36" height="5" rx="2.5" fill="#86868b" opacity="0.4"></rect>
    </g>
  </g>
</svg>