<svg xmlns="http://www.w3.org/2000/svg" viewBox="0 0 480 360" fill="none">
  <rect width="480" height="360" rx="12" fill="#f9f9fb"></rect>

  
  <rect x="20" y="20" width="440" height="320" rx="8" fill="#fff" stroke="#d2d2d7" stroke-width="1"></rect>
  <rect x="20" y="20" width="440" height="30" rx="8" fill="#f5f5f7" stroke="#d2d2d7" stroke-width="1"></rect>
  <rect x="20" y="42" width="440" height="8" fill="#f5f5f7"></rect>
  <circle cx="38" cy="35" r="4.5" fill="#ff5f57"></circle>
  <circle cx="52" cy="35" r="4.5" fill="#febc2e"></circle>
  <circle cx="66" cy="35" r="4.5" fill="#28c840"></circle>

  
  <rect x="28" y="56" width="240" height="276" fill="#fefefe"></rect>
  <line x1="268" y1="56" x2="268" y2="332" stroke="#e8e8ed" stroke-width="1"></line>

  
  <rect x="44" y="72" width="160" height="10" rx="3" fill="#1d1d1f" opacity="0.65"></rect>
  <rect x="44" y="92" width="200" height="5" rx="2.5" fill="#86868b" opacity="0.3"></rect>
  <rect x="44" y="102" width="190" height="5" rx="2.5" fill="#86868b" opacity="0.3"></rect>
  <rect x="44" y="112" width="196" height="5" rx="2.5" fill="#86868b" opacity="0.3"></rect>
  <rect x="44" y="122" width="140" height="5" rx="2.5" fill="#86868b" opacity="0.25"></rect>

  
  <rect x="44" y="140" width="180" height="14" rx="2" fill="#fef3c7" opacity="0.8"></rect>
  <rect x="48" y="143" width="170" height="5" rx="2.5" fill="#86868b" opacity="0.4"></rect>
  <rect x="48" y="150" width="80" height="2" rx="1" fill="#c8922a" opacity="0.5"></rect>

  <rect x="44" y="162" width="196" height="5" rx="2.5" fill="#86868b" opacity="0.25"></rect>
  <rect x="44" y="172" width="180" height="5" rx="2.5" fill="#86868b" opacity="0.25"></rect>
  <rect x="44" y="182" width="160" height="5" rx="2.5" fill="#86868b" opacity="0.2"></rect>

  
  <rect x="44" y="200" width="150" height="5" rx="2.5" fill="#86868b" opacity="0.35"></rect>
  <line x1="44" y1="208" x2="194" y2="208" stroke="#ff3b30" stroke-width="1.5" opacity="0.6"></line>

  <rect x="44" y="216" width="196" height="5" rx="2.5" fill="#86868b" opacity="0.2"></rect>
  <rect x="44" y="226" width="188" height="5" rx="2.5" fill="#86868b" opacity="0.2"></rect>
  <rect x="44" y="236" width="170" height="5" rx="2.5" fill="#86868b" opacity="0.2"></rect>
  <rect x="44" y="246" width="192" height="5" rx="2.5" fill="#86868b" opacity="0.2"></rect>

  
  <rect x="276" y="56" width="176" height="276" fill="#ffffff"></rect>

  
  <rect x="288" y="68" width="80" height="8" rx="3" fill="#1d1d1f" opacity="0.5"></rect>
  <line x1="288" y1="84" x2="440" y2="84" stroke="#e8e8ed" stroke-width="0.5"></line>

  
  <rect x="288" y="96" width="100" height="6" rx="3" fill="#0071e3" opacity="0.4"></rect>
  <rect x="288" y="112" width="148" height="4" rx="2" fill="#86868b" opacity="0.3"></rect>
  <rect x="288" y="122" width="140" height="4" rx="2" fill="#86868b" opacity="0.25"></rect>
  <rect x="288" y="132" width="120" height="4" rx="2" fill="#86868b" opacity="0.25"></rect>

  
  <rect x="288" y="150" width="148" height="28" rx="4" fill="#f5f5f7"></rect>
  <text x="362" y="168" text-anchor="middle" font-family="monospace" font-size="10" fill="#86868b" opacity="0.5">E = mc^2</text>

  <rect x="288" y="190" width="80" height="6" rx="3" fill="#0071e3" opacity="0.35"></rect>
  <rect x="288" y="206" width="148" height="4" rx="2" fill="#86868b" opacity="0.25"></rect>
  <rect x="288" y="216" width="136" height="4" rx="2" fill="#86868b" opacity="0.25"></rect>
  <rect x="288" y="226" width="148" height="4" rx="2" fill="#86868b" opacity="0.2"></rect>

  
  <rect x="288" y="248" width="92" height="20" rx="10" fill="#0071e3" opacity="0.08" stroke="#0071e3" stroke-width="0.8" stroke-opacity="0.3"></rect>
  <rect x="298" y="255" width="72" height="5" rx="2.5" fill="#0071e3" opacity="0.4"></rect>
</svg>