<svg xmlns="http://www.w3.org/2000/svg" viewBox="0 0 480 360" fill="none">
  <rect width="480" height="360" rx="12" fill="#f9f9fb"></rect>

  
  <g transform="translate(20, 20)">
    
    <g fill="#d2d2d7" opacity="0.3">
      <circle cx="40" cy="40" r="1.5"></circle><circle cx="80" cy="40" r="1.5"></circle><circle cx="120" cy="40" r="1.5"></circle>
      <circle cx="160" cy="40" r="1.5"></circle><circle cx="200" cy="40" r="1.5"></circle><circle cx="240" cy="40" r="1.5"></circle>
      <circle cx="280" cy="40" r="1.5"></circle><circle cx="320" cy="40" r="1.5"></circle><circle cx="360" cy="40" r="1.5"></circle>
      <circle cx="400" cy="40" r="1.5"></circle>
      <circle cx="40" cy="80" r="1.5"></circle><circle cx="80" cy="80" r="1.5"></circle><circle cx="120" cy="80" r="1.5"></circle>
      <circle cx="160" cy="80" r="1.5"></circle><circle cx="200" cy="80" r="1.5"></circle><circle cx="240" cy="80" r="1.5"></circle>
      <circle cx="280" cy="80" r="1.5"></circle><circle cx="320" cy="80" r="1.5"></circle><circle cx="360" cy="80" r="1.5"></circle>
      <circle cx="400" cy="80" r="1.5"></circle>
      <circle cx="40" cy="120" r="1.5"></circle><circle cx="80" cy="120" r="1.5"></circle><circle cx="120" cy="120" r="1.5"></circle>
      <circle cx="160" cy="120" r="1.5"></circle><circle cx="200" cy="120" r="1.5"></circle><circle cx="240" cy="120" r="1.5"></circle>
      <circle cx="280" cy="120" r="1.5"></circle><circle cx="320" cy="120" r="1.5"></circle><circle cx="360" cy="120" r="1.5"></circle>
      <circle cx="400" cy="120" r="1.5"></circle>
    </g>

    
    <line x1="220" y1="160" x2="100" y2="80" stroke="#c8922a" stroke-width="2.5" opacity="0.3"></line>
    <line x1="220" y1="160" x2="340" y2="80" stroke="#c8922a" stroke-width="2.5" opacity="0.3"></line>
    <line x1="220" y1="160" x2="100" y2="240" stroke="#0071e3" stroke-width="1.5" opacity="0.2"></line>
    <line x1="220" y1="160" x2="340" y2="240" stroke="#0071e3" stroke-width="1.5" opacity="0.2"></line>
    <line x1="220" y1="160" x2="160" y2="280" stroke="#86868b" stroke-width="1" opacity="0.15"></line>
    <line x1="220" y1="160" x2="280" y2="280" stroke="#86868b" stroke-width="1" opacity="0.15"></line>
    <line x1="100" y1="80" x2="60" y2="160" stroke="#86868b" stroke-width="1" opacity="0.12"></line>
    <line x1="340" y1="80" x2="400" y2="160" stroke="#86868b" stroke-width="1" opacity="0.12"></line>

    
    <circle cx="220" cy="160" r="40" fill="#c8922a" opacity="0.06"></circle>

    
    <circle cx="220" cy="160" r="22" fill="#c8922a"></circle>
    <text x="220" y="156" text-anchor="middle" font-family="-apple-system, sans-serif" font-size="8" fill="#fff" font-weight="600">BRIDGE</text>
    <text x="220" y="168" text-anchor="middle" font-family="-apple-system, sans-serif" font-size="7" fill="#fff" opacity="0.8">PAPER</text>

    
    <circle cx="100" cy="80" r="16" fill="#0071e3"></circle>
    <text x="100" y="84" text-anchor="middle" font-family="-apple-system, sans-serif" font-size="7" fill="#fff" font-weight="500">Cited</text>

    <circle cx="340" cy="80" r="16" fill="#0071e3"></circle>
    <text x="340" y="84" text-anchor="middle" font-family="-apple-system, sans-serif" font-size="7" fill="#fff" font-weight="500">Cites</text>

    <circle cx="100" cy="240" r="14" fill="#34c759" opacity="0.85"></circle>
    <text x="100" y="244" text-anchor="middle" font-family="-apple-system, sans-serif" font-size="7" fill="#fff" font-weight="500">Read</text>

    <circle cx="340" cy="240" r="14" fill="#ff9500" opacity="0.85"></circle>
    <text x="340" y="244" text-anchor="middle" font-family="-apple-system, sans-serif" font-size="7" fill="#fff" font-weight="500">Next</text>

    
    <circle cx="60" cy="160" r="9" fill="#86868b" opacity="0.5"></circle>
    <circle cx="400" cy="160" r="9" fill="#86868b" opacity="0.5"></circle>
    <circle cx="160" cy="280" r="8" fill="#86868b" opacity="0.4"></circle>
    <circle cx="280" cy="280" r="8" fill="#86868b" opacity="0.4"></circle>

    
    <rect x="80" y="0" width="60" height="22" rx="11" fill="#c8922a" opacity="0.12"></rect>
    <text x="110" y="15" text-anchor="middle" font-family="-apple-system, sans-serif" font-size="8" fill="#c8922a" font-weight="600" opacity="0.9">Bridges</text>

    <rect x="150" y="0" width="72" height="22" rx="11" fill="#0071e3" opacity="0.08"></rect>
    <text x="186" y="15" text-anchor="middle" font-family="-apple-system, sans-serif" font-size="8" fill="#0071e3" font-weight="500" opacity="0.7">Next reads</text>

    <rect x="232" y="0" width="56" height="22" rx="11" fill="#f5f5f7" stroke="#d2d2d7" stroke-width="0.8"></rect>
    <text x="260" y="15" text-anchor="middle" font-family="-apple-system, sans-serif" font-size="8" fill="#86868b" opacity="0.7">Earlier</text>

    <rect x="298" y="0" width="68" height="22" rx="11" fill="#f5f5f7" stroke="#d2d2d7" stroke-width="0.8"></rect>
    <text x="332" y="15" text-anchor="middle" font-family="-apple-system, sans-serif" font-size="8" fill="#86868b" opacity="0.7">Follow-ups</text>
  </g>
</svg>